<svg width="57" height="53" viewBox="0 0 57 53" fill="none" xmlns="http://www.w3.org/2000/svg">
<path d="M56.5 26.0797C56.5 22.2115 51.8543 18.5457 44.7316 16.2724C46.3753 8.70271 45.6447 2.68028 42.4258 0.752146C41.6839 0.299869 40.8163 0.0856323 39.8689 0.0856323V2.73979C40.394 2.73979 40.8163 2.8469 41.1702 3.04924C42.7226 3.9776 43.396 7.5125 42.871 12.0591C42.7454 13.1779 42.54 14.3562 42.2888 15.5583C40.0516 14.987 37.6088 14.5466 35.0406 14.261C33.4996 12.0591 31.9016 10.0595 30.2921 8.30994C34.0133 4.70362 37.5061 2.72789 39.8804 2.72789V0.0737305C36.7413 0.0737305 32.6321 2.40653 28.4772 6.45322C24.3223 2.43033 20.213 0.121339 17.074 0.121339V2.77549C19.4368 2.77549 22.9411 4.73933 26.6623 8.32184C25.0642 10.0714 23.4662 12.0591 21.948 14.261C19.3683 14.5466 16.9256 14.987 14.6883 15.5702C14.4258 14.38 14.2318 13.2255 14.0948 12.1186C13.5583 7.57201 14.2203 4.03711 15.7613 3.09685C16.1038 2.88261 16.5489 2.7874 17.074 2.7874V0.133241C16.1152 0.133241 15.2477 0.347477 14.4943 0.799755C11.2868 2.72788 10.5677 8.73841 12.2228 16.2843C5.12291 18.5695 0.5 22.2234 0.5 26.0797C0.5 29.9478 5.14574 33.6137 12.2684 35.887C10.6247 43.4567 11.3553 49.4791 14.5742 51.4072C15.3161 51.8595 16.1837 52.0737 17.1425 52.0737C20.2815 52.0737 24.3907 49.7409 28.5457 45.6942C32.7006 49.7171 36.8098 52.0261 39.9488 52.0261C40.9077 52.0261 41.7752 51.8119 42.5285 51.3596C45.736 49.4315 46.4552 43.4209 44.8 35.8751C51.8771 33.6018 56.5 29.9359 56.5 26.0797ZM41.6382 18.141C41.2159 19.6764 40.6908 21.2594 40.0972 22.8423C39.6292 21.8902 39.1384 20.938 38.6019 19.9858C38.0768 19.0337 37.5175 18.1053 36.9582 17.2008C38.5791 17.4507 40.1429 17.7602 41.6382 18.141ZM36.4103 30.8167C35.52 32.4235 34.6068 33.9469 33.6594 35.3633C31.9586 35.518 30.235 35.6013 28.5 35.6013C26.7764 35.6013 25.0528 35.518 23.3634 35.3752C22.416 33.9588 21.4914 32.4473 20.6011 30.8524C19.7336 29.2932 18.946 27.7103 18.2269 26.1154C18.9346 24.5205 19.7336 22.9256 20.5897 21.3665C21.48 19.7597 22.3932 18.2362 23.3406 16.8199C25.0414 16.6652 26.765 16.5819 28.5 16.5819C30.2236 16.5819 31.9472 16.6652 33.6366 16.808C34.584 18.2243 35.5086 19.7359 36.3989 21.3308C37.2664 22.8899 38.054 24.4729 38.7731 26.0678C38.054 27.6627 37.2664 29.2575 36.4103 30.8167ZM40.0972 29.2694C40.7136 30.8643 41.2387 32.4592 41.6724 34.0064C40.1771 34.3873 38.6019 34.7087 36.9696 34.9586C37.5289 34.0421 38.0883 33.1019 38.6133 32.1378C39.1384 31.1857 39.6292 30.2216 40.0972 29.2694ZM28.5228 41.9689C27.4613 40.8263 26.3997 39.5528 25.3496 38.1602C26.3769 38.2079 27.427 38.2436 28.4886 38.2436C29.5616 38.2436 30.6231 38.2198 31.6618 38.1602C30.6345 39.5528 29.573 40.8263 28.5228 41.9689ZM20.0304 34.9586C18.4095 34.7087 16.8457 34.3992 15.3504 34.0183C15.7727 32.483 16.2978 30.9 16.8914 29.317C17.3594 30.2692 17.8502 31.2214 18.3867 32.1735C18.9232 33.1257 19.4711 34.054 20.0304 34.9586ZM28.4658 10.1905C29.5273 11.3331 30.5889 12.6066 31.639 13.9991C30.6117 13.9515 29.5616 13.9158 28.5 13.9158C27.427 13.9158 26.3655 13.9396 25.3267 13.9991C26.3541 12.6066 27.4156 11.3331 28.4658 10.1905ZM20.019 17.2008C19.4596 18.1172 18.9003 19.0575 18.3753 20.0215C17.8502 20.9737 17.3594 21.9259 16.8914 22.878C16.275 21.2832 15.7499 19.6883 15.3161 18.141C16.8115 17.7721 18.3867 17.4507 20.019 17.2008ZM9.68875 32.1021C5.64798 30.3049 3.03404 27.9483 3.03404 26.0797C3.03404 24.2111 5.64798 21.8426 9.68875 20.0572C10.6704 19.6169 11.7434 19.2241 12.8506 18.8551C13.5012 21.1879 14.3573 23.616 15.4189 26.1035C14.3687 28.5791 13.5241 30.9952 12.8848 33.3161C11.7548 32.9472 10.6818 32.5425 9.68875 32.1021ZM15.8298 49.1101C14.2774 48.1818 13.604 44.6469 14.129 40.1003C14.2546 38.9815 14.4601 37.8032 14.7112 36.6011C16.9484 37.1724 19.3912 37.6128 21.9594 37.8984C23.5004 40.1003 25.0985 42.0998 26.7079 43.8494C22.9868 47.4557 19.4939 49.4315 17.1196 49.4315C16.606 49.4196 16.1722 49.3125 15.8298 49.1101ZM42.9052 40.0408C43.4417 44.5873 42.7797 48.1223 41.2387 49.0625C40.8962 49.2767 40.4511 49.372 39.926 49.372C37.5632 49.372 34.0589 47.4081 30.3378 43.8256C31.9358 42.076 33.5338 40.0884 35.052 37.8865C37.6317 37.6009 40.0744 37.1605 42.3117 36.5773C42.5742 37.7794 42.7797 38.9339 42.9052 40.0408ZM47.2998 32.1021C46.3182 32.5425 45.2452 32.9353 44.138 33.3042C43.4874 30.9714 42.6313 28.5434 41.5697 26.0559C42.6199 23.5803 43.4645 21.1641 44.1038 18.8432C45.2338 19.2122 46.3068 19.6169 47.3113 20.0572C51.352 21.8545 53.966 24.2111 53.966 26.0797C53.9545 27.9483 51.3406 30.3168 47.2998 32.1021Z" fill="white"/>
<path d="M28.4884 31.5186C31.3694 31.5186 33.7049 29.0834 33.7049 26.0794C33.7049 23.0754 31.3694 20.6401 28.4884 20.6401C25.6075 20.6401 23.272 23.0754 23.272 26.0794C23.272 29.0834 25.6075 31.5186 28.4884 31.5186Z" fill="white"/>
</svg>
