<svg xmlns="http://www.w3.org/2000/svg" 
     viewBox="0 0 57 53" width="60" height="55">
    <path fill="#F4511E" d="M47.55,24.88L29.12,6.45C28.57,5.9,27.8,5.56,27,5.56c0,0,0,0,0,0c-0.8,0-1.57,0.34-2.13,0.89l-3.92,3.92l4.6,4.6c0.45-0.22,0.9-0.34,1.46-0.34c1.91,0,3.37,1.46,3.37,3.37c0,0.56-0.11,1.01-0.34,1.46l4.5,4.5c0.45-0.22,0.9-0.34,1.46-0.34c1.91,0,3.37,1.46,3.37,3.37s-1.46,3.37-3.37,3.37c-1.91,0-3.37-1.46-3.37-3.37c0-0.56,0.11-1.01,0.34-1.46l-4.5-4.5c-0.11,0-0.22,0.11-0.34,0.11v11.69c1.35,0.45,2.25,1.69,2.25,3.14c0,1.91-1.46,3.37-3.37,3.37s-3.37-1.46-3.37-3.37c0-1.46,0.9-2.69,2.25-3.14V21.06c-1.35-0.45-2.25-1.69-2.25-3.14c0-0.56,0.11-1.01,0.34-1.46l-4.6-4.6L6.45,24.88C5.9,25.43,5.56,26.2,5.56,27c0,0.8,0.34,1.57,0.89,2.13l18.33,18.33c0,0,0,0,0,0c0.56,0.56,1.33,0.89,2.13,0.89s1.57-0.34,2.13-0.89l18.33-18.33c0.56-0.56,0.89-1.33,0.89-2.13C48.44,26.2,48.1,25.43,47.55,24.88z"/>
</svg>
