          <svg width="70" height="70" viewBox="0 0 66 66" fill="none" xmlns="http://www.w3.org/2000/svg">
          <rect x="0.5" y="0.540527" width="65" height="65" rx="8" fill="#55ACEE"/>
          <path fill-rule="evenodd" clip-rule="evenodd" d="M29.7863 29.2518H34.4287V31.5643C35.0975 30.2343 36.8125 29.0393 39.3888 29.0393C44.3275 29.0393 45.5 31.6868 45.5 36.5443V45.5405H40.5V37.6505C40.5 34.8843 39.8313 33.3243 38.1287 33.3243C35.7675 33.3243 34.7863 35.0055 34.7863 37.6493V45.5405H29.7863V29.2518ZM21.2125 45.328H26.2125V29.0393H21.2125V45.328ZM26.9288 23.728C26.9289 24.1471 26.8458 24.5621 26.6842 24.9488C26.5226 25.3355 26.2858 25.6862 25.9875 25.9805C25.383 26.5813 24.5648 26.9176 23.7125 26.9155C22.8617 26.915 22.0454 26.5795 21.44 25.9818C21.1428 25.6864 20.9067 25.3353 20.7454 24.9486C20.5841 24.5618 20.5007 24.1471 20.5 23.728C20.5 22.8818 20.8375 22.0718 21.4413 21.4743C22.0461 20.8757 22.8628 20.5402 23.7138 20.5405C24.5663 20.5405 25.3837 20.8768 25.9875 21.4743C26.59 22.0718 26.9288 22.8818 26.9288 23.728Z" fill="white"/>
          </svg>