<svg width="57" height="53" viewBox="0 0 81 85" fill="none" xmlns="http://www.w3.org/2000/svg">
<path d="M40.4999 84.1622C39.2763 84.1626 38.0742 83.8654 37.0144 83.3004L25.923 77.235C24.2677 76.3792 25.0743 76.077 25.6217 75.9004C27.3822 75.398 29.0678 74.6943 30.6394 73.8058C30.771 73.7496 30.9159 73.7253 31.0604 73.7352C31.205 73.7452 31.3444 73.789 31.4654 73.8626L39.9881 78.5396C40.1468 78.6172 40.3236 78.6577 40.5032 78.6577C40.6827 78.6577 40.8595 78.6172 41.0182 78.5396L74.2537 60.8191C74.4092 60.733 74.5379 60.6111 74.627 60.4653C74.7162 60.3194 74.7628 60.1547 74.7622 59.9872V24.5402C74.7624 24.3701 74.715 24.2028 74.6248 24.0545C74.5346 23.9062 74.4045 23.7818 74.2472 23.6934L41.0117 5.98785C40.855 5.90632 40.6782 5.86348 40.4983 5.86348C40.3184 5.86348 40.1416 5.90632 39.9849 5.98785L6.76884 23.6994C6.6104 23.7859 6.47884 23.9088 6.3869 24.0561C6.29497 24.2035 6.24577 24.3702 6.24407 24.5402V59.9723C6.24452 60.1394 6.29306 60.3034 6.3847 60.4474C6.47634 60.5915 6.6078 60.7105 6.7656 60.7922L15.8811 65.6517C20.821 67.9319 23.8466 65.2447 23.8466 62.5457V27.5625C23.8466 27.3244 23.9489 27.0961 24.1312 26.9277C24.3134 26.7594 24.5606 26.6648 24.8184 26.6648H29.0295C29.2872 26.6648 29.5344 26.7594 29.7166 26.9277C29.8989 27.0961 30.0013 27.3244 30.0013 27.5625V62.5487C30.0013 68.638 26.4121 72.1241 20.1602 72.1241C17.4631 72.1675 14.8082 71.5012 12.5057 70.203L3.76923 65.5739C2.70863 65.0034 1.8286 64.1858 1.21699 63.2029C0.605374 62.22 0.283574 61.106 0.283714 59.9723V24.5402C0.280562 23.4047 0.601001 22.2885 1.21283 21.3036C1.82466 20.3188 2.70632 19.5 3.76923 18.9296L37.0079 1.20313C38.0786 0.662026 39.2795 0.378418 40.4999 0.378418C41.7204 0.378418 42.9212 0.662026 43.9919 1.20313L77.2274 18.9296C78.2878 19.499 79.1681 20.3154 79.7803 21.2973C80.3924 22.2792 80.7151 23.3922 80.7161 24.5253V59.9723C80.7143 61.106 80.3913 62.2196 79.7793 63.2023C79.1673 64.185 78.2875 65.0026 77.2274 65.5739L43.9919 83.3004C42.9302 83.8663 41.7257 84.1635 40.4999 84.1622Z" fill="white"/>
<path d="M34.1948 48.1158C34.1948 47.8777 34.2972 47.6494 34.4795 47.481C34.6617 47.3127 34.9089 47.2181 35.1666 47.2181H39.4652C39.6949 47.2188 39.9169 47.2946 40.0918 47.4321C40.2667 47.5696 40.3833 47.7599 40.4208 47.9692C41.0687 52.0118 43.0123 54.0496 51.8005 54.0496C58.8007 54.0496 61.7841 52.5863 61.7841 49.1541C61.7841 47.1762 60.9387 45.707 50.0578 44.7225C40.9618 43.8906 35.3383 42.0294 35.3383 35.3147C35.3383 29.1206 40.9909 25.425 50.4659 25.425C61.1136 25.425 66.384 28.8393 67.0513 36.1645C67.0615 36.2868 67.0444 36.4097 67.0012 36.5257C66.958 36.6416 66.8895 36.7482 66.7999 36.8388C66.7104 36.9293 66.6017 37.002 66.4806 37.0523C66.3594 37.1025 66.2284 37.1293 66.0957 37.131H61.7679C61.5508 37.1282 61.341 37.0583 61.1719 36.9325C61.0028 36.8066 60.8842 36.6321 60.835 36.4368C59.8017 32.1847 57.2718 30.8262 50.4692 30.8262C42.8244 30.8262 41.9368 33.2859 41.9368 35.1291C41.9368 37.3614 42.9863 38.0137 53.3068 39.2735C63.5204 40.5213 68.3729 42.2868 68.3729 48.9177C68.3729 55.6086 62.3348 59.4387 51.8038 59.4387C37.243 59.4567 34.1948 53.2895 34.1948 48.1158Z" fill="white"/>
</svg>
